<svg xmlns="http://www.w3.org/2000/svg" viewBox="0 0 512 512">
  <path d="m238 470-29-4-28-8a206 206 0 0 1-66-36c-3-1-30-25-39-35-7-9-14-20-14-23l-9-14-11-17-12-23q-4-7-9-31l-3-12c-2-5-2-50 0-55l3-16q3-15 8-22l1-5 1-3 3-5q1-5 5-11l2-4 1-2q2 0 2-3l7-9 2-4 3-4 12-14q9-11 24-20l16-11 14-12q8-7 22-15l41-24 9-3 13-3 16-4q41-9 74-5l24 3a72 72 0 0 1 29 7l14 8 15 9c0 1 8 6 10 6l11 6 12 6 1 2 3 2c9 4 38 31 44 41 5 7 16 28 21 39q7 12 10 29l3 13 4 13c2 9 3 61 1 67l-11 48-6 16c-3 9-9 20-13 24l-9 12q-11 15-30 31l-15 13a232 232 0 0 1-61 38 152 152 0 0 1-80 23zm43-19 20-4c12-2 17-3 29-9l16-9 7-3 13-7a388 388 0 0 0 88-77 99 99 0 0 0 12-28l8-27 3-15a225 225 0 0 0-11-109c-4-16-25-50-37-61a227 227 0 0 0-61-42l-5-4-5-3-1-1-10-6q-16-10-36-10l-15-2c-15-3-42-2-63 2l-29 5-32 16-13 8-18 11-62 52-16 22-11 21-6 15-4 13-4 13a98 98 0 0 0 1 47l2 11c0 8 6 28 11 36l7 14q3 7 11 18l12 21 11 16a264 264 0 0 0 96 64l7 2 3 1 6 2 7 2 4 1 11 2 12 2zm-34-81-15-10-13-9-11-8-12-8q-9-6-13-13l-4-7 3-5q6-10 18 0l10 6 12 7 27 22 6 3 1 1 5 3 5 2 8-8c11-12 57-56 61-58q7-5 13 1 5 3 3 8c-1 5-3 7-67 68l-12 12h-7c-6 0-8-1-18-7M118 227q-13-5-12-21 0-16 14-22 16-6 25 6c3 5 5 18 2 25q-3 9-15 13c-6 2-6 2-14-1m202-22-10-9-5-6v-11c0-11 0-12 3-15 7-5 19-7 26-3q15 6 14 20-1 19-15 24c-6 2-7 2-13 0"/>
  <path fill="#fff" d="m232 450-16-3-4-2-7-1-6-2-3-1-8-3-6-2-3-1a176 176 0 0 1-48-27c-11-7-33-27-40-36l-9-14-12-20-18-31a109 109 0 0 1-11-38l-3-12-1-8-1-7a93 93 0 0 1 5-40l6-18 4-10a142 142 0 0 1 31-48c9-11 12-14 20-19l26-20 30-22 13-7q23-13 30-15l24-6a203 203 0 0 1 71-3l19 2a65 65 0 0 1 33 11l11 7 4 3 5 3 7 4a199 199 0 0 1 62 47c11 13 23 34 27 46l4 14 6 20q5 8 5 45c0 21-1 27-4 43a204 204 0 0 1-17 55c-3 6-4 7-10 14l-7 10a375 375 0 0 1-87 67l-8 4-1 1-14 8c-15 6-16 7-42 11-13 2-17 3-35 2h-14zm55-87c57-55 63-61 64-65v-6l-6-6h-4c-4 0-6 1-14 8l-56 54-5 6-4-2-5-3-2-1-9-6-22-17-12-8-12-7-6-4-6-1-7 7-2 3 3 4c4 9 6 11 14 16l12 8 24 18 23 14q5 2 12 2h5zM132 229q12-4 16-14l1-9q0-9-3-14l-8-8q-11-6-23 2-9 7-9 21 0 10 5 16l10 5q6 3 11 1m202-24q7-3 10-10c3-5 4-7 4-14q0-7-3-12-6-6-14-10h-12q-9 3-13 8-2 1-2 15v8l3 3q9 10 14 12l7 2z"/>
</svg>
